<svg id="Layer_1" data-name="Layer 1" xmlns="http://www.w3.org/2000/svg" viewBox="0 0 624 104"><path d="M32.21,48.89,84.09,25.81,73.81,2.69,2.14,34.58,10.55,53.5v51.07H89V48.89ZM81.41,97H18.14V56.49H81.41ZM52.34,20.55,47.2,33.91,33.89,39.84,39,26.47Zm4.67,9,5.13-13.36L70,12.71,74.07,22ZM29.22,30.84,24.08,44.2l-7.81,3.48-4.11-9.25Z" fill="#274dd8"/><path d="M73.82,81.79H63.69V71.67H73.82V64.08H25.74v7.59H35.86V81.79H25.74v7.59H73.82ZM43.45,71.67H56.1V81.79H43.45Z" fill="#274dd8"/><text transform="translate(119.74 103.03)" font-size="79" fill="#274dd8" font-family="Roboto-Light, Roboto" font-weight="300">React <tspan x="218.56" y="0" fill="#fff" font-family="Roboto-Black, Roboto" font-weight="800">M</tspan><tspan x="287.8" y="0" fill="#fff" font-family="Roboto-Black, Roboto" font-weight="800" letter-spacing="-0.01em">o</tspan><tspan x="331.58" y="0" fill="#fff" font-family="Roboto-Black, Roboto" font-weight="800" letter-spacing="0em">vie</tspan></text></svg>